<svg width="257" height="40" viewBox="0 0 257 40" fill="none" xmlns="http://www.w3.org/2000/svg">
<path d="M0 20C0 8.95431 8.9543 0 20 0H237C248.046 0 257 8.95431 257 20C257 31.0457 248.046 40 237 40H20C8.95431 40 0 31.0457 0 20Z" fill="#1E1928"/>
<path d="M41.43 17.3636H42.6232C42.5685 15.8274 41.1516 14.679 39.1829 14.679C37.234 14.679 35.7028 15.8125 35.7028 17.5227C35.7028 18.8949 36.6971 19.7102 38.288 20.1676L39.5408 20.5256C40.6147 20.8239 41.5692 21.2017 41.5692 22.2159C41.5692 23.3295 40.4954 24.0653 39.0835 24.0653C37.8704 24.0653 36.7965 23.5284 36.6971 22.375H35.4244C35.5437 24.0455 36.896 25.179 39.0835 25.179C41.43 25.179 42.7624 23.8864 42.7624 22.2358C42.7624 20.3267 40.9528 19.7102 39.8988 19.4318L38.8647 19.1534C38.109 18.9545 36.896 18.5568 36.896 17.4631C36.896 16.4886 37.7908 15.7727 39.1431 15.7727C40.3761 15.7727 41.3107 16.3594 41.43 17.3636ZM49.443 21.8778C49.443 23.3097 48.3493 23.9659 47.4743 23.9659C46.4998 23.9659 45.8038 23.25 45.8038 22.1364V17.3636H44.6305V22.2159C44.6305 24.1648 45.6646 25.0994 47.0964 25.0994C48.2498 25.0994 49.0055 24.483 49.3635 23.7074H49.443V25H50.6163V17.3636H49.443V21.8778ZM52.9244 25H54.0579V23.8267H54.1971C54.4556 24.2443 54.9528 25.1591 56.4244 25.1591C58.3335 25.1591 59.6658 23.6278 59.6658 21.2017C59.6658 18.7955 58.3335 17.2642 56.4045 17.2642C54.913 17.2642 54.4556 18.179 54.1971 18.5767H54.0977V14.8182H52.9244V25ZM54.0778 21.1818C54.0778 19.4716 54.8335 18.3182 56.2653 18.3182C57.7567 18.3182 58.4925 19.571 58.4925 21.1818C58.4925 22.8125 57.7369 24.1051 56.2653 24.1051C54.8533 24.1051 54.0778 22.9119 54.0778 21.1818ZM66.8697 19.0739C66.5018 17.9901 65.6765 17.2642 64.1651 17.2642C62.5543 17.2642 61.3612 18.179 61.3612 19.4716C61.3612 20.5256 61.9876 21.2315 63.3896 21.5597L64.6623 21.858C65.4329 22.0369 65.7958 22.4048 65.7958 22.9318C65.7958 23.5881 65.0998 24.125 64.006 24.125C63.0465 24.125 62.445 23.7124 62.2362 22.892L61.1225 23.1705C61.396 24.468 62.4648 25.1591 64.0259 25.1591C65.8008 25.1591 67.0089 24.1896 67.0089 22.8722C67.0089 21.8082 66.3427 21.1371 64.9805 20.804L63.8469 20.5256C62.9421 20.3018 62.5344 19.9986 62.5344 19.4119C62.5344 18.7557 63.2305 18.2784 64.1651 18.2784C65.1893 18.2784 65.6119 18.8452 65.8157 19.3722L66.8697 19.0739ZM71.8773 25.1591C73.5676 25.1591 74.6813 24.125 74.8801 22.7727H73.7069C73.4881 23.608 72.7921 24.1051 71.8773 24.1051C70.4853 24.1051 69.5904 22.9517 69.5904 21.1818C69.5904 19.4517 70.5051 18.3182 71.8773 18.3182C72.9114 18.3182 73.5279 18.9545 73.7069 19.6506H74.8801C74.6813 18.2188 73.4682 17.2642 71.8574 17.2642C69.7892 17.2642 68.4171 18.8949 68.4171 21.2216C68.4171 23.5085 69.7296 25.1591 71.8773 25.1591ZM76.5953 25H77.7686V20.1676C77.7686 19.1335 78.584 18.3778 79.6976 18.3778C80.0108 18.3778 80.334 18.4375 80.4135 18.4574V17.2642C80.2793 17.2543 79.9711 17.2443 79.7971 17.2443C78.8823 17.2443 78.0868 17.7614 77.8084 18.517H77.7289V17.3636H76.5953V25ZM81.8043 25H82.9776V17.3636H81.8043V25ZM82.4009 16.0909C82.8583 16.0909 83.2362 15.733 83.2362 15.2955C83.2362 14.858 82.8583 14.5 82.4009 14.5C81.9435 14.5 81.5657 14.858 81.5657 15.2955C81.5657 15.733 81.9435 16.0909 82.4009 16.0909ZM85.2857 25H86.4192V23.8267H86.5584C86.8169 24.2443 87.3141 25.1591 88.7857 25.1591C90.6948 25.1591 92.0272 23.6278 92.0272 21.2017C92.0272 18.7955 90.6948 17.2642 88.7658 17.2642C87.2743 17.2642 86.8169 18.179 86.5584 18.5767H86.459V14.8182H85.2857V25ZM86.4391 21.1818C86.4391 19.4716 87.1948 18.3182 88.6266 18.3182C90.1181 18.3182 90.8539 19.571 90.8539 21.1818C90.8539 22.8125 90.0982 24.1051 88.6266 24.1051C87.2147 24.1051 86.4391 22.9119 86.4391 21.1818ZM97.0236 25.1591C98.5748 25.1591 99.7083 24.3835 100.066 23.2301L98.9327 22.9119C98.6344 23.7074 97.9434 24.1051 97.0236 24.1051C95.6465 24.1051 94.6969 23.2152 94.6422 21.5795H100.186V21.0824C100.186 18.2386 98.4952 17.2642 96.9043 17.2642C94.8361 17.2642 93.464 18.8949 93.464 21.2415C93.464 23.5881 94.8162 25.1591 97.0236 25.1591ZM94.6422 20.5653C94.7218 19.3771 95.562 18.3182 96.9043 18.3182C98.177 18.3182 98.9924 19.2727 98.9924 20.5653H94.6422ZM109.229 17.3636H107.598V15.5341H106.425V17.3636H105.271V18.358H106.425V23.1307C106.425 24.4631 107.499 25.0994 108.493 25.0994C108.931 25.0994 109.209 25.0199 109.368 24.9602L109.129 23.9062C109.03 23.9261 108.871 23.9659 108.612 23.9659C108.095 23.9659 107.598 23.8068 107.598 22.8125V18.358H109.229V17.3636ZM114.014 25.1591C116.082 25.1591 117.474 23.5881 117.474 21.2216C117.474 18.8352 116.082 17.2642 114.014 17.2642C111.946 17.2642 110.554 18.8352 110.554 21.2216C110.554 23.5881 111.946 25.1591 114.014 25.1591ZM114.014 24.1051C112.443 24.1051 111.727 22.7528 111.727 21.2216C111.727 19.6903 112.443 18.3182 114.014 18.3182C115.585 18.3182 116.301 19.6903 116.301 21.2216C116.301 22.7528 115.585 24.1051 114.014 24.1051ZM131.953 19.9091C131.953 16.6875 130.064 14.679 127.458 14.679C124.853 14.679 122.964 16.6875 122.964 19.9091C122.964 23.1307 124.853 25.1392 127.458 25.1392C130.064 25.1392 131.953 23.1307 131.953 19.9091ZM130.76 19.9091C130.76 22.554 129.308 23.9858 127.458 23.9858C125.609 23.9858 124.157 22.554 124.157 19.9091C124.157 17.2642 125.609 15.8324 127.458 15.8324C129.308 15.8324 130.76 17.2642 130.76 19.9091ZM138.679 21.8778C138.679 23.3097 137.586 23.9659 136.711 23.9659C135.736 23.9659 135.04 23.25 135.04 22.1364V17.3636H133.867V22.2159C133.867 24.1648 134.901 25.0994 136.333 25.0994C137.486 25.0994 138.242 24.483 138.6 23.7074H138.679V25H139.853V17.3636H138.679V21.8778ZM142.002 25H143.175V20.1676C143.175 19.1335 143.99 18.3778 145.104 18.3778C145.417 18.3778 145.74 18.4375 145.82 18.4574V17.2642C145.686 17.2543 145.377 17.2443 145.203 17.2443C144.289 17.2443 143.493 17.7614 143.215 18.517H143.135V17.3636H142.002V25ZM159.381 14.8182H158.168V22.8324H158.069L152.5 14.8182H151.307V25H152.54V17.0057H152.64L158.188 25H159.381V14.8182ZM164.891 25.1591C166.442 25.1591 167.575 24.3835 167.933 23.2301L166.8 22.9119C166.502 23.7074 165.811 24.1051 164.891 24.1051C163.514 24.1051 162.564 23.2152 162.509 21.5795H168.053V21.0824C168.053 18.2386 166.362 17.2642 164.771 17.2642C162.703 17.2642 161.331 18.8949 161.331 21.2415C161.331 23.5881 162.683 25.1591 164.891 25.1591ZM162.509 20.5653C162.589 19.3771 163.429 18.3182 164.771 18.3182C166.044 18.3182 166.86 19.2727 166.86 20.5653H162.509ZM171.568 25H172.721L174.392 19.1335H174.511L176.181 25H177.335L179.661 17.3636H178.428L176.778 23.1903H176.698L175.088 17.3636H173.835L172.204 23.2102H172.124L170.474 17.3636H169.241L171.568 25ZM186.622 19.0739C186.254 17.9901 185.428 17.2642 183.917 17.2642C182.306 17.2642 181.113 18.179 181.113 19.4716C181.113 20.5256 181.74 21.2315 183.142 21.5597L184.414 21.858C185.185 22.0369 185.548 22.4048 185.548 22.9318C185.548 23.5881 184.852 24.125 183.758 24.125C182.798 24.125 182.197 23.7124 181.988 22.892L180.874 23.1705C181.148 24.468 182.217 25.1591 183.778 25.1591C185.553 25.1591 186.761 24.1896 186.761 22.8722C186.761 21.8082 186.095 21.1371 184.732 20.804L183.599 20.5256C182.694 20.3018 182.286 19.9986 182.286 19.4119C182.286 18.7557 182.982 18.2784 183.917 18.2784C184.941 18.2784 185.364 18.8452 185.568 19.3722L186.622 19.0739ZM189.7 14.8182H188.527V25H189.7V14.8182ZM195.051 25.1591C196.602 25.1591 197.736 24.3835 198.094 23.2301L196.96 22.9119C196.662 23.7074 195.971 24.1051 195.051 24.1051C193.674 24.1051 192.724 23.2152 192.67 21.5795H198.213V21.0824C198.213 18.2386 196.523 17.2642 194.932 17.2642C192.863 17.2642 191.491 18.8949 191.491 21.2415C191.491 23.5881 192.844 25.1591 195.051 25.1591ZM192.67 20.5653C192.749 19.3771 193.589 18.3182 194.932 18.3182C196.204 18.3182 197.02 19.2727 197.02 20.5653H192.67ZM203.319 17.3636H201.688V15.5341H200.515V17.3636H199.361V18.358H200.515V23.1307C200.515 24.4631 201.589 25.0994 202.583 25.0994C203.02 25.0994 203.299 25.0199 203.458 24.9602L203.219 23.9062C203.12 23.9261 202.961 23.9659 202.702 23.9659C202.185 23.9659 201.688 23.8068 201.688 22.8125V18.358H203.319V17.3636ZM208.405 17.3636H206.774V15.5341H205.601V17.3636H204.447V18.358H205.601V23.1307C205.601 24.4631 206.675 25.0994 207.669 25.0994C208.106 25.0994 208.385 25.0199 208.544 24.9602L208.305 23.9062C208.206 23.9261 208.047 23.9659 207.788 23.9659C207.271 23.9659 206.774 23.8068 206.774 22.8125V18.358H208.405V17.3636ZM213.289 25.1591C214.84 25.1591 215.974 24.3835 216.332 23.2301L215.198 22.9119C214.9 23.7074 214.209 24.1051 213.289 24.1051C211.912 24.1051 210.963 23.2152 210.908 21.5795H216.451V21.0824C216.451 18.2386 214.761 17.2642 213.17 17.2642C211.102 17.2642 209.73 18.8949 209.73 21.2415C209.73 23.5881 211.082 25.1591 213.289 25.1591ZM210.908 20.5653C210.987 19.3771 211.828 18.3182 213.17 18.3182C214.443 18.3182 215.258 19.2727 215.258 20.5653H210.908ZM218.236 25H219.409V20.1676C219.409 19.1335 220.225 18.3778 221.338 18.3778C221.651 18.3778 221.975 18.4375 222.054 18.4574V17.2642C221.92 17.2543 221.612 17.2443 221.438 17.2443C220.523 17.2443 219.727 17.7614 219.449 18.517H219.369V17.3636H218.236V25Z" fill="#F4EFE9"/>
</svg>
