<svg width="208" height="40" viewBox="0 0 208 40" fill="none" xmlns="http://www.w3.org/2000/svg">
<g clip-path="url(#clip0_1_62)">
<path d="M76 40C87.0457 40 96 31.0457 96 20C96 8.95431 87.0457 0 76 0C64.9543 0 56 8.95431 56 20C56 31.0457 64.9543 40 76 40Z" fill="#1E1928"/>
<path d="M76.0006 16.185C73.8894 16.185 72.1855 17.8889 72.1855 20.0001C72.1855 22.1114 73.8894 23.8153 76.0006 23.8153C78.1119 23.8153 79.8157 22.1114 79.8157 20.0001C79.8157 17.8889 78.1119 16.185 76.0006 16.185ZM76.0006 22.4796C74.6353 22.4796 73.5211 21.3654 73.5211 20.0001C73.5211 18.6348 74.6353 17.5206 76.0006 17.5206C77.366 17.5206 78.4801 18.6348 78.4801 20.0001C78.4801 21.3654 77.366 22.4796 76.0006 22.4796ZM79.972 15.1396C79.479 15.1396 79.081 15.5376 79.081 16.0306C79.081 16.5235 79.479 16.9216 79.972 16.9216C80.4649 16.9216 80.863 16.5254 80.863 16.0306C80.8631 15.9135 80.8401 15.7976 80.7955 15.6894C80.7507 15.5814 80.6851 15.4831 80.6023 15.4003C80.5196 15.3174 80.4213 15.2518 80.3131 15.2072C80.2049 15.1624 80.089 15.1394 79.972 15.1396ZM83.4374 20.0001C83.4374 18.9734 83.4467 17.9558 83.389 16.9309C83.3314 15.7404 83.0598 14.6839 82.1892 13.8134C81.3168 12.941 80.2621 12.6713 79.0717 12.6135C78.0449 12.5559 77.0274 12.5653 76.0024 12.5653C74.9757 12.5653 73.9582 12.5559 72.9333 12.6135C71.7428 12.6713 70.6862 12.9428 69.8157 13.8134C68.9433 14.6857 68.6736 15.7404 68.616 16.9309C68.5582 17.9577 68.5676 18.9752 68.5676 20.0001C68.5676 21.0251 68.5582 22.0444 68.616 23.0694C68.6736 24.2598 68.9452 25.3163 69.8157 26.1869C70.6881 27.0593 71.7428 27.329 72.9333 27.3867C73.96 27.4443 74.9776 27.435 76.0024 27.435C77.0293 27.435 78.0467 27.4443 79.0717 27.3867C80.2621 27.329 81.3187 27.0574 82.1892 26.1869C83.0617 25.3145 83.3314 24.2598 83.389 23.0694C83.4485 22.0444 83.4374 21.0269 83.4374 20.0001ZM81.8004 24.3863C81.6647 24.7248 81.501 24.9778 81.2387 25.2382C80.9764 25.5005 80.7253 25.6642 80.3868 25.7999C79.4083 26.1888 77.0851 26.1014 76.0006 26.1014C74.9161 26.1014 72.591 26.1888 71.6126 25.8018C71.2741 25.666 71.0211 25.5023 70.7606 25.2401C70.4983 24.9778 70.3347 24.7267 70.1989 24.3881C69.812 23.4078 69.8994 21.0846 69.8994 20.0001C69.8994 18.9156 69.812 16.5905 70.1989 15.6121C70.3347 15.2735 70.4983 15.0206 70.7606 14.7601C71.0229 14.4997 71.2741 14.3342 71.6126 14.1984C72.591 13.8114 74.9161 13.8989 76.0006 13.8989C77.0851 13.8989 79.4102 13.8114 80.3886 14.1984C80.7272 14.3342 80.9801 14.4979 81.2405 14.7601C81.5028 15.0224 81.6665 15.2735 81.8023 15.6121C82.1892 16.5905 82.1018 18.9156 82.1018 20.0001C82.1018 21.0846 82.1892 23.4078 81.8004 24.3863Z" fill="white"/>
</g>
<g clip-path="url(#clip1_1_62)">
<path d="M188 40C199.046 40 208 31.0457 208 20C208 8.95431 199.046 0 188 0C176.954 0 168 8.95431 168 20C168 31.0457 176.954 40 188 40Z" fill="#1E1928"/>
<path d="M192.524 20.4386V23.4315H190.789V20.6386C190.789 19.9376 190.538 19.4591 189.91 19.4591C189.431 19.4591 189.145 19.7813 189.019 20.0937C188.974 20.2055 188.962 20.3609 188.962 20.5163V23.4315H187.226C187.226 23.4315 187.25 18.7022 187.226 18.2124H188.962V18.9516L188.951 18.9685H188.962V18.9523C189.193 18.5961 189.604 18.0894 190.526 18.0894C191.667 18.0894 192.524 18.8357 192.524 20.4386ZM185.411 15.6956C184.817 15.6956 184.429 16.0857 184.429 16.5974C184.429 17.0993 184.806 17.5 185.388 17.5H185.399C186.005 17.5 186.381 17.0985 186.381 16.5974C186.37 16.0857 186.005 15.6956 185.411 15.6956ZM184.531 23.4315H186.267V18.2124H184.531V23.4315Z" fill="white"/>
<path d="M183.619 13.0475C183.19 13.0475 182.778 13.2181 182.474 13.5217C182.171 13.8253 182 14.2371 182 14.6666V24.3808C182 24.8102 182.171 25.222 182.474 25.5257C182.778 25.8293 183.19 25.9999 183.619 25.9999H193.333C193.763 25.9999 194.175 25.8293 194.478 25.5257C194.782 25.222 194.952 24.8102 194.952 24.3808V14.6666C194.952 14.2371 194.782 13.8253 194.478 13.5217C194.175 13.2181 193.763 13.0475 193.333 13.0475H183.619ZM183.619 11.4285H193.333C194.192 11.4285 195.016 11.7696 195.623 12.3768C196.23 12.9842 196.571 13.8078 196.571 14.6666V24.3808C196.571 25.2396 196.23 26.0632 195.623 26.6705C195.016 27.2778 194.192 27.6189 193.333 27.6189H183.619C182.76 27.6189 181.937 27.2778 181.329 26.6705C180.722 26.0632 180.381 25.2396 180.381 24.3808V14.6666C180.381 13.8078 180.722 12.9842 181.329 12.3768C181.937 11.7696 182.76 11.4285 183.619 11.4285Z" fill="white"/>
</g>
<g clip-path="url(#clip2_1_62)">
<path d="M20 40C31.0457 40 40 31.0457 40 20C40 8.95431 31.0457 0 20 0C8.95431 0 0 8.95431 0 20C0 31.0457 8.95431 40 20 40Z" fill="#1E1928"/>
<path d="M23.9708 17.5773C23.6787 17.7043 23.3652 17.7916 23.0358 17.8297C23.3724 17.6312 23.6295 17.3169 23.7517 16.9431C23.431 17.1301 23.0811 17.2615 22.7168 17.3321C22.5635 17.1714 22.3791 17.0436 22.1748 16.9565C21.9706 16.8695 21.7508 16.825 21.5287 16.8257C20.6295 16.8257 19.9009 17.544 19.9009 18.4288C19.9009 18.5543 19.9152 18.6765 19.9429 18.794C19.298 18.7633 18.6665 18.5985 18.0888 18.3103C17.5109 18.0219 16.9996 17.6164 16.5874 17.1193C16.4426 17.3631 16.3664 17.6414 16.3668 17.9249C16.3668 18.4805 16.6548 18.9725 17.0913 19.259C16.8329 19.2509 16.5802 19.1822 16.3532 19.0583V19.0781C16.3557 19.4506 16.4872 19.8109 16.7254 20.0974C16.9636 20.384 17.2937 20.579 17.6596 20.6495C17.4194 20.713 17.1681 20.7223 16.9239 20.6765C17.0304 20.997 17.234 21.2765 17.5065 21.476C17.7789 21.6755 18.1068 21.7853 18.4446 21.79C17.8651 22.2365 17.1538 22.4777 16.4223 22.4757C16.2913 22.4757 16.162 22.4678 16.0342 22.4535C16.7807 22.926 17.6461 23.1762 18.5295 23.1749C21.5248 23.1749 23.162 20.7321 23.162 18.613L23.1565 18.405C23.4758 18.1806 23.7517 17.9002 23.9708 17.5773Z" fill="white"/>
<path d="M15.2394 13.6506C14.8184 13.6506 14.4146 13.8178 14.117 14.1154C13.8193 14.4131 13.6521 14.8169 13.6521 15.2378V24.7616C13.6521 25.1827 13.8193 25.5864 14.117 25.8841C14.4146 26.1817 14.8184 26.3489 15.2394 26.3489H24.7632C25.1842 26.3489 25.5879 26.1817 25.8856 25.8841C26.1832 25.5864 26.3504 25.1827 26.3504 24.7616V15.2378C26.3504 14.8169 26.1832 14.4131 25.8856 14.1154C25.5879 13.8178 25.1842 13.6506 24.7632 13.6506H15.2394ZM15.2394 12.0632H24.7632C25.6051 12.0632 26.4126 12.3977 27.008 12.993C27.6033 13.5884 27.9378 14.3959 27.9378 15.2378V24.7616C27.9378 25.6036 27.6033 26.411 27.008 27.0065C26.4126 27.6018 25.6051 27.9363 24.7632 27.9363H15.2394C14.3974 27.9363 13.59 27.6018 12.9946 27.0065C12.3993 26.411 12.0648 25.6036 12.0648 24.7616V15.2378C12.0648 14.3959 12.3993 13.5884 12.9946 12.993C13.59 12.3977 14.3974 12.0632 15.2394 12.0632Z" fill="white"/>
</g>
<g clip-path="url(#clip3_1_62)">
<path d="M132 40C143.046 40 152 31.0457 152 20C152 8.95431 143.046 0 132 0C120.954 0 112 8.95431 112 20C112 31.0457 120.954 40 132 40Z" fill="#1E1928"/>
<path d="M130.966 17.5688V18.6617H130.166V19.9974H130.966V23.968H132.61V19.9974H133.714C133.714 19.9974 133.818 19.3569 133.868 18.6561H132.617V17.7434C132.617 17.6061 132.796 17.4227 132.974 17.4227H133.869V16.0315H132.651C130.925 16.0315 130.966 17.3688 130.966 17.5688Z" fill="white"/>
<path d="M127.239 13.6506C126.818 13.6506 126.415 13.8178 126.117 14.1154C125.819 14.4131 125.652 14.8169 125.652 15.2378V24.7616C125.652 25.1827 125.819 25.5864 126.117 25.8841C126.415 26.1817 126.818 26.3489 127.239 26.3489H136.763C137.184 26.3489 137.588 26.1817 137.886 25.8841C138.183 25.5864 138.35 25.1827 138.35 24.7616V15.2378C138.35 14.8169 138.183 14.4131 137.886 14.1154C137.588 13.8178 137.184 13.6506 136.763 13.6506H127.239ZM127.239 12.0632H136.763C137.605 12.0632 138.413 12.3977 139.008 12.993C139.603 13.5884 139.938 14.3959 139.938 15.2378V24.7616C139.938 25.6036 139.603 26.411 139.008 27.0065C138.413 27.6018 137.605 27.9363 136.763 27.9363H127.239C126.397 27.9363 125.59 27.6018 124.995 27.0065C124.399 26.411 124.065 25.6036 124.065 24.7616V15.2378C124.065 14.3959 124.399 13.5884 124.995 12.993C125.59 12.3977 126.397 12.0632 127.239 12.0632Z" fill="white"/>
</g>
<defs>
<clipPath id="clip0_1_62">
<rect width="40" height="40" fill="white" transform="translate(56)"/>
</clipPath>
<clipPath id="clip1_1_62">
<rect width="40" height="40" fill="white" transform="translate(168)"/>
</clipPath>
<clipPath id="clip2_1_62">
<rect width="40" height="40" fill="white"/>
</clipPath>
<clipPath id="clip3_1_62">
<rect width="40" height="40" fill="white" transform="translate(112)"/>
</clipPath>
</defs>
</svg>
