<svg width="404" height="389" viewBox="0 0 404 389" fill="none" xmlns="http://www.w3.org/2000/svg">
<g clip-path="url(#clip0_1_225)">
<g clip-path="url(#clip1_1_225)">
<path d="M91.8038 378.101C91.4584 378.101 91.1094 378.101 90.764 378.101C89.5601 377.939 88.3597 377.737 87.1524 377.633C85.9939 377.534 84.9785 377.087 84.1759 376.332C82.145 374.419 81.3599 371.987 81.3738 369.263C81.3808 368.125 81.3738 366.992 81.3738 365.786C80.4178 365.797 80.2293 365.206 80.1875 364.45C80.1456 363.688 80.0409 362.932 79.9641 362.173C79.9676 362.073 79.9746 361.977 79.9781 361.877C79.9816 359.655 79.9886 357.436 79.992 355.214C80.163 353.806 80.4526 352.401 80.484 350.992C80.6097 345.246 80.6166 339.496 80.7458 333.749C80.7912 331.767 81.0284 329.789 81.2517 327.818C81.6216 324.547 82.0612 321.287 82.4555 318.021C82.5882 316.922 82.6684 315.816 82.7801 314.717C83.0627 311.979 83.3768 309.245 83.6245 306.507C83.8653 303.849 84.0398 301.187 84.2422 298.528C84.4445 295.839 84.6539 293.149 84.8423 290.46C84.9436 289.013 84.9541 287.561 85.0971 286.121C85.3274 283.81 85.6519 281.505 85.8996 279.197C86.123 277.108 86.287 275.016 86.4963 272.928C86.7476 270.445 87.1 267.964 87.264 265.474C87.5153 261.648 87.6444 257.811 87.8189 253.981C87.9898 250.182 88.2027 246.383 88.3074 242.581C88.4191 238.493 88.4261 234.406 88.4818 230.318C88.6005 228.735 88.7436 227.154 88.8344 225.567C88.8936 224.575 88.7855 223.565 88.9111 222.583C89.3508 219.141 89.5985 215.692 89.417 212.223C89.3717 211.343 89.3682 210.458 89.4415 209.579C89.7032 206.353 89.9788 203.131 90.2929 199.909C90.6209 196.519 91.0013 193.132 91.3537 189.745C91.6643 186.75 91.9399 183.754 92.2749 180.763C92.6239 177.662 92.9728 174.56 93.4264 171.471C93.9847 167.655 94.6687 163.853 95.2653 160.043C95.4887 158.618 95.6352 157.182 95.8132 155.75C99.4074 156.423 102.994 157.148 106.599 157.756C110.507 158.416 114.44 158.934 118.352 159.591C120.735 159.988 123.097 160.514 125.466 161.002C126.251 161.163 127.016 161.435 127.805 161.586C128.907 161.799 130.034 161.889 131.123 162.142C132.132 162.376 133.081 162.888 134.092 163.049C136.137 163.379 138.203 163.701 140.269 163.767C145.605 163.942 150.946 163.626 156.278 164.275C159.276 164.64 162.315 164.653 165.334 164.849C165.529 164.862 165.832 165.062 165.871 165.224C166.039 165.91 166.122 166.618 166.24 167.319C166.967 171.623 167.668 175.933 168.436 180.23C168.792 182.226 169.35 184.187 169.689 186.187C169.981 187.918 170.044 189.684 170.288 191.425C170.717 194.513 171.199 197.594 171.681 200.671C171.821 201.565 172.023 202.447 172.198 203.334C172.187 203.828 172.177 204.323 172.166 204.817C172.233 204.951 172.302 205.089 172.368 205.223C172.407 205.377 172.442 205.528 172.48 205.683C172.56 206.14 172.641 206.593 172.72 207.051C172.741 207.198 172.762 207.349 172.783 207.496C172.832 207.703 172.881 207.912 172.93 208.118C172.948 208.218 172.962 208.321 172.979 208.42C173.018 208.607 173.056 208.792 173.094 208.974C173.118 209.245 173.143 209.513 173.167 209.784C173.251 210.368 173.339 210.955 173.422 211.539C173.447 211.694 173.475 211.852 173.498 212.007C173.533 212.192 173.572 212.378 173.607 212.563C173.628 212.776 173.652 212.989 173.673 213.206C173.715 213.504 173.754 213.803 173.796 214.098C173.862 214.346 173.924 214.597 173.991 214.843C174.033 215.548 174.071 216.255 174.113 216.96C174.124 217.118 174.138 217.272 174.148 217.43C174.18 217.564 174.211 217.699 174.243 217.832C174.292 218.234 174.339 218.636 174.388 219.038C174.423 219.488 174.458 219.938 174.49 220.388C174.514 220.676 174.539 220.968 174.56 221.256C174.598 221.535 174.633 221.814 174.672 222.095C174.7 222.216 174.723 222.332 174.751 222.452C174.769 222.566 174.783 222.675 174.8 222.789C174.842 222.961 174.884 223.132 174.923 223.308C174.94 223.42 174.958 223.531 174.975 223.644C175.128 224.451 175.306 225.255 175.429 226.069C176.053 230.311 176.675 234.55 177.267 238.795C177.711 241.976 178.112 245.161 178.534 248.344C178.928 251.329 179.358 254.308 179.703 257.299C179.906 259.047 179.902 260.816 180.104 262.565C180.625 267.023 181.515 271.447 181.368 275.971C181.35 276.483 181.343 276.998 181.41 277.506C181.79 280.488 182.226 283.466 182.568 286.454C182.746 288.003 182.732 289.573 182.875 291.126C183.011 292.624 183.283 294.107 183.416 295.605C183.535 296.962 183.517 298.332 183.614 299.692C183.768 301.843 183.964 303.993 184.138 306.14C184.191 306.762 184.236 307.387 184.292 308.008C184.469 310.011 184.651 312.014 184.832 314.02C184.86 314.329 184.874 314.641 184.913 314.951C185.112 316.582 185.405 318.21 185.496 319.849C185.68 323.077 185.345 326.316 186.002 329.545C186.584 332.406 186.106 335.361 186.71 338.277C187.341 341.32 187.387 344.477 187.785 347.571C188.074 349.811 188.51 352.033 188.898 354.259C189.198 355.987 189.495 357.715 189.854 359.429C189.924 359.755 190.22 360.184 190.513 360.288C192.572 360.992 194.708 361.496 196.718 362.307C199.213 363.31 201.607 364.547 204.046 365.68C204.722 365.996 204.81 366.498 204.635 367.171C204.116 369.153 202.852 370.719 201.698 372.341C201.027 373.282 200.008 373.715 198.896 373.866C194.188 374.512 189.481 375.167 184.76 375.73C181.326 376.139 177.879 376.421 174.434 376.74C172.944 376.878 171.448 376.985 169.953 377.077C166.447 377.293 162.94 377.472 159.433 377.706C158.229 377.785 157.032 377.977 155.828 378.118C155.483 378.118 155.134 378.118 154.789 378.118C153.641 377.957 152.495 377.702 151.344 377.661C150.151 377.62 149.167 377.125 148.302 376.465C146.397 375.013 145.573 372.825 145.486 370.64C145.328 366.755 144.99 362.887 144.781 359.013C144.61 355.846 143.979 352.765 143.643 349.635C143.511 348.396 143.245 347.173 143.075 345.936C142.726 343.411 142.404 340.883 142.055 338.359C141.787 336.415 141.414 334.484 141.235 332.533C141.033 330.329 141.026 328.109 140.876 325.9C140.74 323.864 140.44 321.837 140.377 319.801C140.283 316.798 140.412 313.786 140.308 310.784C140.178 307.039 139.91 303.303 139.696 299.562C139.626 298.342 139.551 297.119 139.467 295.901C139.316 293.726 139.149 291.552 139.013 289.374C138.922 287.904 138.887 286.427 138.796 284.957C138.734 283.909 138.643 282.865 138.531 281.824C138.336 280.021 138.095 278.221 137.9 276.418C137.68 274.387 137.509 272.351 137.285 270.317C137.055 268.232 136.772 266.155 136.546 264.069C136.214 261.026 135.89 257.986 135.607 254.939C135.398 252.686 135.265 250.423 135.098 248.166C135.073 247.826 135.031 247.486 135.007 247.145C134.836 244.885 134.669 242.626 134.501 240.365C134.466 239.885 134.441 239.4 134.399 238.919C134.222 236.917 133.991 234.921 133.873 232.915C133.709 230.081 133.625 227.241 133.506 224.403C133.502 224.318 133.486 224.235 133.479 224.149C133.227 221.927 133.004 219.697 132.721 217.479C132.522 215.905 132.261 214.339 131.999 212.773C131.646 210.671 131.273 208.576 130.9 206.476C130.69 205.308 130.456 204.144 130.234 202.976C129.818 206.535 129.521 210.069 129.34 213.608C129.141 217.441 129.04 221.277 128.918 225.111C128.844 227.436 128.816 229.765 128.76 232.094C128.697 234.708 128.583 237.322 128.569 239.935C128.541 245.424 128.464 250.907 127.916 256.379C127.581 259.714 127.469 263.073 127.215 266.418C127.127 267.548 126.946 268.676 126.74 269.795C126.325 272.059 125.704 274.295 125.459 276.576C125.082 280.076 124.954 283.604 124.72 287.121C124.259 294.049 123.826 300.978 123.321 307.902C123.139 310.395 122.92 312.899 122.469 315.356C121.698 319.56 121.08 323.767 120.955 328.047C120.899 330.005 120.703 331.966 120.435 333.907C119.737 338.974 119.088 344.054 118.18 349.086C117.574 352.452 117.964 355.771 118.059 359.274C119.426 359.366 120.822 359.342 122.173 359.576C124.598 359.999 127.006 360.527 129.4 361.104C130.991 361.489 132.209 363.289 131.765 364.509C131.168 366.148 130.251 367.583 128.59 368.38C127.686 368.816 126.771 369.262 125.813 369.555C123.003 370.414 120.173 371.207 117.35 372.014C114.642 372.79 111.931 373.563 109.217 374.323C106.362 375.119 103.518 375.957 100.639 376.664C98.8595 377.101 97.0276 377.335 95.2131 377.633C94.0929 377.802 92.9484 377.943 91.8038 378.101Z" fill="#1E1928"/>
<path d="M0 192.859C0.0628101 192.533 0.195409 192.207 0.174472 191.887C0.0244261 189.659 0.540873 187.501 0.837477 185.32C0.963097 184.396 0.806059 183.438 0.910742 182.511C1.10266 180.806 1.39579 179.113 1.64005 177.413C1.67844 177.135 1.67144 176.847 1.69936 176.565C1.9192 174.459 2.15648 172.357 2.35887 170.248C2.42169 169.599 2.35887 168.939 2.41818 168.29C2.59266 166.407 2.81599 164.529 2.99396 162.647C3.06724 161.86 3.04281 161.063 3.12656 160.273C3.26963 158.871 3.46154 157.477 3.62904 156.079C3.75466 155.014 3.81048 153.94 4.00938 152.888C4.33738 151.171 4.73518 149.467 5.14345 147.766C5.47146 146.396 5.81691 145.025 6.23565 143.679C7.29296 140.272 8.32234 136.85 10.1368 133.735C10.894 132.437 11.6548 131.135 12.4958 129.891C13.7345 128.064 14.9767 126.233 16.3481 124.506C17.8311 122.634 19.4293 120.851 21.0344 119.075C22.5768 117.368 24.1645 115.695 25.7836 114.057C26.9595 112.865 28.4042 111.893 29.4056 110.583C31.8273 107.428 35.39 105.816 38.5969 103.749C40.837 102.306 43.2203 101.035 45.663 99.9491C47.6938 99.0496 49.9062 98.5378 52.0312 97.8405C52.2441 97.7718 52.4255 97.6 52.621 97.4763C53.5038 98.3901 54.3831 99.3071 55.3008 100.259C55.1682 100.42 55.0322 100.599 54.8822 100.764C53.8841 101.859 52.8164 102.904 51.8917 104.061C50.1086 106.291 48.4929 108.657 46.647 110.831C43.4646 114.586 41.5385 118.838 40.9173 123.678C40.8964 123.846 40.851 124.017 40.8719 124.18C41.1581 126.313 41.6641 128.277 43.3425 129.912C45.2094 131.733 47.1774 132.769 49.8678 132.416C54.1773 131.846 57.0909 129.321 59.1253 125.824C61.1945 122.269 61.69 118.251 61.3271 114.242C61.0585 111.288 60.2454 108.382 59.694 105.452C59.4184 103.982 59.1811 102.505 58.9368 101.065C62.4123 100.688 65.6436 99.9939 68.3444 97.8164C68.6899 97.9367 69.0283 98.1221 69.3843 98.1633C71.0941 98.3729 72.6294 98.9362 74.1124 99.8397C75.585 100.739 77.2879 101.272 78.8128 102.103C80.7075 103.137 82.5639 104.257 84.3575 105.459C85.0693 105.936 85.5683 106.73 86.1615 107.376C85.4148 108.275 84.7937 109.327 83.9004 110.051C80.7983 112.569 77.9159 115.296 75.1767 118.192C73.8648 119.58 72.3363 120.775 71.0487 122.184C68.9969 124.423 66.5195 126.127 64.0873 127.899C63.1138 128.607 62.1925 129.404 61.1491 129.998C58.3855 131.578 55.58 133.09 52.7675 134.583C50.5099 135.786 48.2173 136.926 45.9387 138.09C43.2099 139.489 40.4706 140.87 37.7524 142.284C36.6322 142.868 35.5505 143.528 34.4514 144.153C32.1518 145.455 29.8418 146.74 27.5562 148.069C27.2073 148.272 26.9699 148.657 26.6804 148.958C25.0089 149.491 23.2118 149.793 21.6939 150.604C18.1277 152.507 16.7563 156.099 15.3082 159.528C14.387 161.709 14.7324 164.099 14.6173 166.395C14.4882 169.018 14.5964 171.652 14.6103 174.284C14.6138 174.792 14.6627 175.301 14.7011 175.809C14.7743 176.729 14.6487 177.743 15.0047 178.543C15.3117 179.227 16.0969 179.848 16.8227 180.158C17.517 180.453 18.4068 179.91 18.9199 178.928C19.4851 177.839 20.2213 176.733 21.1635 175.96C22.4581 174.896 23.9726 174.071 25.4626 173.267C28.1459 171.815 31.091 170.836 33.4743 168.854C33.6976 169.015 33.9733 169.138 34.1408 169.344C34.9713 170.368 35.9448 170.481 37.1522 170.021C39.0574 169.297 41.0116 168.703 42.9272 168.001C46.5214 166.686 50.0876 165.298 53.6922 164.024C54.6763 163.677 55.6289 162.808 56.8257 163.471C56.8886 163.505 57.0421 163.409 57.1433 163.361C60.6222 161.644 64.178 160.053 67.5558 158.164C70.2043 156.683 72.6469 154.843 75.1663 153.139C76.7331 152.077 78.2998 151.01 79.8177 149.882C83.0629 147.471 86.3604 145.122 89.473 142.552C91.476 140.897 93.1789 138.894 95.0248 137.053C95.3388 136.741 95.6982 136.472 96.2112 136.033C96.0367 137.891 95.946 139.527 95.7122 141.14C95.2028 144.682 94.5676 148.203 94.8783 151.809C94.9864 153.094 94.6863 154.444 95.7506 155.499C95.803 155.55 95.7995 155.66 95.8204 155.742C95.639 157.175 95.4958 158.611 95.2726 160.036C94.6724 163.849 93.9919 167.648 93.4335 171.463C92.98 174.552 92.631 177.654 92.2821 180.756C91.9436 183.747 91.6714 186.742 91.3609 189.737C91.0084 193.128 90.6316 196.511 90.3001 199.901C89.986 203.124 89.7103 206.345 89.4486 209.571C89.3789 210.446 89.3789 211.336 89.4242 212.216C89.6057 215.688 89.3579 219.133 88.9182 222.575C88.7926 223.558 88.8973 224.563 88.8415 225.56C88.7507 227.143 88.6077 228.727 88.4891 230.311C86.5873 230.355 84.682 230.513 82.7908 230.42C78.5406 230.214 74.2974 229.884 70.0472 229.607C69.4157 229.565 68.784 229.548 68.1525 229.493C65.3155 229.252 62.4786 229.002 59.6417 228.755C59.223 228.71 58.8077 228.637 58.389 228.621C57.5585 228.59 56.7315 228.59 55.901 228.576C55.3951 228.415 54.8996 228.16 54.3831 228.108C51.288 227.789 48.1788 227.573 45.0872 227.205C42.4875 226.896 39.9158 226.339 37.3127 226.044C32.4763 225.499 27.626 225.069 22.7826 224.574C20.3156 224.32 17.8555 224.024 15.392 223.75C15.5141 222.472 15.6606 221.194 15.7409 219.913C15.7759 219.367 15.6746 218.81 15.6362 218.258C15.5316 216.777 15.8107 215.252 15.1093 213.837C15.0466 213.713 15.0186 213.562 15.0186 213.421C14.9942 212.285 14.9977 211.147 14.9558 210.01C14.9209 209.1 14.7778 208.19 14.7778 207.279C14.7743 205.638 14.8407 203.996 14.8721 202.354C14.8929 201.265 14.9034 200.176 14.9139 199.09C14.9244 197.929 14.9453 196.768 14.9348 195.607C14.9313 195.216 14.7673 194.81 14.8232 194.433C15.0815 192.76 15.3955 191.095 15.6886 189.425C15.7025 189.343 15.6886 189.257 15.6851 189.174C15.6119 187.78 15.5316 186.382 15.4582 184.987C15.3955 183.757 15.3536 182.528 15.2524 181.302C15.2385 181.113 14.9697 180.941 14.8197 180.763C14.6418 180.951 14.3312 181.13 14.3103 181.336C14.1881 182.501 14.0765 183.668 14.0695 184.836C14.059 186.869 14.2195 188.879 13.745 190.919C13.3611 192.561 13.3611 194.316 13.403 196.016C13.4483 197.905 13.0436 199.795 13.4728 201.694C13.6367 202.422 13.3856 203.237 13.3576 204.016C13.2948 205.765 13.239 207.513 13.2076 209.261C13.1902 210.189 13.1762 211.127 13.2704 212.047C13.3402 212.723 13.6996 213.376 13.7345 214.049C13.8357 216.131 13.8113 218.22 13.9055 220.301C13.9613 221.531 14.1463 222.757 14.2719 223.983C12.7714 223.908 11.2291 223.747 10.1229 222.692C9.03769 221.661 8.06762 220.466 7.26854 219.205C6.44503 217.904 5.88671 216.44 5.21325 215.045C5.16439 215.059 5.11555 215.07 5.06669 215.083C5.0981 215.51 5.12951 215.936 5.16092 216.358C5.09461 216.372 5.03181 216.385 4.96551 216.399C4.35485 215.619 3.74419 214.839 3.13354 214.06C2.97303 213.765 2.80901 213.469 2.65547 213.17C2.13903 212.167 1.51094 211.202 1.14106 210.148C0.753728 209.038 0.624619 207.842 0.355931 206.692C0.289631 206.404 0.125624 206.135 0.00349286 205.858C3.40766e-06 201.519 0 197.188 0 192.859Z" fill="#A0B4BB"/>
<path d="M26.6742 148.959C26.9639 148.657 27.2011 148.272 27.5501 148.07C29.8357 146.744 32.1456 145.455 34.4453 144.154C35.5479 143.532 36.6262 142.869 37.7463 142.285C40.4646 140.87 43.2038 139.486 45.9325 138.091C48.2111 136.927 50.5037 135.786 52.7613 134.584C55.5739 133.087 58.3759 131.576 61.1431 129.999C62.1829 129.405 63.1076 128.608 64.0811 127.899C66.5133 126.128 68.9942 124.423 71.0426 122.184C72.3302 120.776 73.8586 119.58 75.1706 118.192C77.9098 115.297 80.7886 112.57 83.8943 110.052C84.7875 109.327 85.4087 108.276 86.1554 107.376C87.2755 106.153 88.3607 104.9 89.5192 103.715C92.07 101.097 94.544 98.4077 97.538 96.2335C99.2234 95.0072 100.749 93.568 102.361 92.2387C102.78 91.8952 103.23 91.5792 103.697 91.2976C106.956 89.3225 110.101 87.1173 113.52 85.4617C117.114 83.7236 120.813 82.0165 124.962 81.8688C125.416 81.8344 125.872 81.7588 126.326 81.7692C127.934 81.8035 129.543 81.8825 131.151 81.9169C132.729 81.9478 134.303 81.9444 135.88 81.9444C136.04 81.9444 136.324 81.9066 136.341 81.8378C136.512 81.1612 136.93 81.4978 137.283 81.594C137.726 81.7143 138.162 81.855 138.602 81.9856C141.379 83.3904 144.335 84.3281 147.266 85.3621C149.133 86.0216 150.889 87.0761 152.559 88.1547C154.092 89.1405 155.561 90.2843 156.855 91.5552C158.373 93.0459 159.835 94.6054 160.795 96.5769C162.274 99.6168 163.9 102.585 165.474 105.58C167.341 109.121 168.911 112.786 170.031 116.619C170.788 119.209 171.371 121.851 171.989 124.479C172.956 128.57 173.86 132.678 174.84 136.765C175.332 138.809 175.994 140.815 176.476 142.858C177.028 145.204 177.468 147.575 177.949 149.938C178.337 151.827 178.727 153.717 179.094 155.609C179.826 159.401 180.346 163.211 180.769 167.057C181.177 170.788 181.267 174.501 181.125 178.204C180.988 181.765 180.443 185.328 179.861 188.855C179.436 191.425 178.685 193.943 178.025 196.471C177.841 197.178 177.464 197.834 177.177 198.514C175.754 200.355 174.233 202.097 172.202 203.334C172.027 202.447 171.822 201.565 171.685 200.671C171.207 197.59 170.725 194.509 170.294 191.425C170.049 189.683 169.986 187.918 169.693 186.187C169.355 184.187 168.796 182.226 168.44 180.23C167.672 175.933 166.971 171.623 166.246 167.319C166.127 166.618 166.043 165.914 165.875 165.224C165.837 165.062 165.53 164.859 165.338 164.848C162.319 164.653 159.281 164.64 156.283 164.275C150.951 163.626 145.609 163.942 140.273 163.767C138.208 163.698 136.142 163.379 134.097 163.049C133.085 162.885 132.132 162.376 131.127 162.142C130.039 161.888 128.908 161.799 127.809 161.586C127.021 161.435 126.257 161.163 125.471 161.002C123.101 160.511 120.739 159.988 118.356 159.59C114.448 158.938 110.511 158.418 106.603 157.756C102.999 157.144 99.4119 156.423 95.8177 155.75C95.7968 155.668 95.8003 155.557 95.7479 155.506C94.6802 154.448 94.9837 153.102 94.8756 151.816C94.5684 148.21 95.2001 144.689 95.7095 141.148C95.9433 139.534 96.0305 137.899 96.2085 136.041C95.6956 136.48 95.3361 136.748 95.0221 137.06C93.1762 138.898 91.4733 140.905 89.4704 142.56C86.3613 145.129 83.0602 147.482 79.8151 149.89C78.2972 151.017 76.7304 152.085 75.1637 153.147C72.6442 154.85 70.2017 156.691 67.5531 158.172C64.1719 160.061 60.6196 161.651 57.1406 163.368C57.0394 163.42 56.8894 163.516 56.8231 163.478C55.6262 162.816 54.6736 163.681 53.6895 164.032C50.0815 165.309 46.5188 166.697 42.9246 168.009C41.0089 168.71 39.0548 169.304 37.1496 170.029C35.9423 170.489 34.9687 170.372 34.1381 169.352C33.9706 169.146 33.6985 169.022 33.4717 168.861C33.3845 168.717 33.3077 168.565 33.2065 168.435C32.4528 167.463 31.8072 166.47 31.4408 165.25C30.8895 163.41 30.073 161.648 29.4064 159.834C29.0854 158.958 28.8133 158.058 28.59 157.151C28.1258 155.283 27.7036 153.4 27.2674 151.525C27.065 150.666 26.8696 149.815 26.6742 148.959Z" fill="#7E4239"/>
<path d="M79.9645 362.176C78.9142 362.441 77.8604 362.701 76.7543 362.98C76.3669 361.513 76.1331 360.098 75.6132 358.796C74.835 356.845 74.6989 354.836 74.5593 352.792C74.4896 351.754 74.2104 350.728 74.0184 349.697C73.3799 346.231 72.696 342.773 72.1098 339.3C71.4677 335.487 70.871 331.668 70.3302 327.837C69.8695 324.574 69.6079 321.283 69.1019 318.031C68.5017 314.177 68.1388 310.316 67.9783 306.421C67.8212 302.587 67.4897 298.761 67.1443 294.942C66.7499 290.586 66.2614 286.234 65.7938 281.886C65.4553 278.753 65.0924 275.62 64.726 272.488C64.2271 268.228 63.7141 263.973 63.2082 259.717C63.1384 259.123 63.1104 258.525 63.0407 257.934C62.6883 255.032 62.3254 252.129 61.9695 249.227C61.7287 247.255 61.4809 245.283 61.2505 243.308C60.8773 240.094 60.5108 236.881 60.1514 233.667C59.9699 232.028 59.8094 230.389 59.6384 228.751C62.4754 228.999 65.3123 229.249 68.1493 229.49C68.7808 229.545 69.4124 229.562 70.044 229.603C74.2907 229.881 78.5339 230.211 82.7874 230.417C84.6822 230.51 86.5875 230.352 88.4857 230.307C88.4335 234.395 88.423 238.486 88.3113 242.573C88.2066 246.375 87.9937 250.175 87.8228 253.973C87.6483 257.807 87.5157 261.64 87.2679 265.467C87.1039 267.957 86.7515 270.434 86.5002 272.921C86.2909 275.009 86.1269 277.104 85.9035 279.189C85.6558 281.501 85.3313 283.802 85.101 286.114C84.958 287.553 84.9475 289.006 84.8462 290.452C84.6578 293.142 84.4484 295.831 84.246 298.52C84.0437 301.183 83.8693 303.845 83.6285 306.5C83.3807 309.241 83.0631 311.975 82.7839 314.709C82.6723 315.812 82.5921 316.915 82.4594 318.014C82.0651 321.28 81.629 324.543 81.2556 327.81C81.0323 329.781 80.7951 331.763 80.7497 333.742C80.617 339.489 80.6101 345.239 80.4879 350.985C80.4565 352.393 80.1669 353.798 79.9959 355.207C79.9436 355.505 79.8459 355.805 79.8424 356.103C79.825 357.666 79.8215 359.232 79.8354 360.795C79.8389 361.152 79.9296 361.509 79.9785 361.87C79.975 361.977 79.9715 362.076 79.9645 362.176Z" fill="#0E8D64"/>
<path d="M172.198 203.33C174.225 202.093 175.75 200.351 177.173 198.51C176.992 202.306 176.985 206.122 176.56 209.89C176.312 212.085 175.401 214.211 174.776 216.362C174.651 216.797 174.469 217.216 174.313 217.642C174.257 217.566 174.201 217.495 174.148 217.419C174.138 217.261 174.124 217.107 174.113 216.949C174.071 216.244 174.033 215.537 173.991 214.832C173.924 214.586 173.862 214.335 173.796 214.087C173.754 213.789 173.716 213.489 173.674 213.194C173.653 212.981 173.628 212.768 173.607 212.552C173.572 212.366 173.534 212.181 173.5 211.995C173.475 211.841 173.447 211.683 173.423 211.528C173.339 210.944 173.251 210.357 173.167 209.773C173.143 209.502 173.118 209.234 173.095 208.963C173.056 208.777 173.018 208.592 172.976 208.409C172.958 208.31 172.944 208.207 172.927 208.107C172.878 207.901 172.829 207.691 172.78 207.485C172.759 207.338 172.738 207.187 172.717 207.039C172.638 206.582 172.557 206.128 172.477 205.672C172.438 205.517 172.403 205.366 172.365 205.212C172.299 205.078 172.229 204.94 172.163 204.806C172.177 204.318 172.187 203.824 172.198 203.33Z" fill="#DFB995"/>
<path d="M79.9815 361.88C79.9326 361.523 79.8419 361.166 79.8385 360.805C79.8245 359.242 79.828 357.676 79.8454 356.113C79.8489 355.815 79.9466 355.515 79.9989 355.217C79.992 357.435 79.985 359.658 79.9815 361.88Z" fill="#0E8D64"/>
<path d="M173.99 214.839C174.032 215.544 174.07 216.251 174.112 216.956C174.074 216.251 174.032 215.544 173.99 214.839Z" fill="#7E4239"/>
<path d="M173.171 209.78C173.255 210.364 173.342 210.951 173.426 211.535C173.339 210.951 173.255 210.364 173.171 209.78Z" fill="#7E4239"/>
<path d="M174.389 219.03C174.424 219.481 174.459 219.93 174.491 220.38C174.459 219.93 174.424 219.481 174.389 219.03Z" fill="#7E4239"/>
<path d="M172.48 205.679C172.561 206.136 172.641 206.589 172.722 207.046C172.641 206.589 172.561 206.132 172.48 205.679Z" fill="#7E4239"/>
<path d="M173.676 213.198C173.718 213.496 173.757 213.796 173.799 214.091C173.757 213.796 173.718 213.496 173.676 213.198Z" fill="#7E4239"/>
<path d="M174.564 221.249C174.603 221.528 174.638 221.807 174.676 222.088C174.638 221.81 174.603 221.531 174.564 221.249Z" fill="#7E4239"/>
<path d="M172.784 207.489C172.833 207.695 172.882 207.904 172.931 208.111C172.882 207.904 172.833 207.698 172.784 207.489Z" fill="#7E4239"/>
<path d="M173.504 212.002C173.538 212.187 173.576 212.373 173.611 212.558C173.573 212.373 173.538 212.187 173.504 212.002Z" fill="#7E4239"/>
<path d="M172.978 208.413C173.017 208.598 173.055 208.785 173.096 208.967C173.059 208.785 173.02 208.598 172.978 208.413Z" fill="#7E4239"/>
<path d="M172.168 204.813C172.234 204.946 172.304 205.084 172.37 205.218C172.304 205.084 172.234 204.95 172.168 204.813Z" fill="#7E4239"/>
<path d="M174.751 222.445C174.768 222.559 174.782 222.668 174.8 222.782C174.786 222.668 174.768 222.555 174.751 222.445Z" fill="#7E4239"/>
<path d="M174.927 223.296C174.945 223.409 174.962 223.519 174.98 223.632C174.959 223.523 174.941 223.409 174.927 223.296Z" fill="#7E4239"/>
<path d="M174.148 217.423C174.204 217.498 174.26 217.57 174.312 217.646C174.288 217.705 174.264 217.766 174.239 217.824C174.211 217.691 174.18 217.556 174.148 217.423Z" fill="#7E4239"/>
<path d="M68.3418 97.8161C65.641 99.9939 62.4097 100.687 58.9342 101.065C59.182 102.505 59.4158 103.981 59.6914 105.452C60.2427 108.382 61.0593 111.288 61.3245 114.242C61.6874 118.25 61.1919 122.269 59.1226 125.824C57.0848 129.321 54.1747 131.845 49.8651 132.416C47.1748 132.773 45.2068 131.733 43.3399 129.912C41.6614 128.273 41.1555 126.312 40.8693 124.179C40.8484 124.017 40.8902 123.842 40.9147 123.677C41.5358 118.838 43.462 114.585 46.6444 110.831C48.4903 108.653 50.1059 106.29 51.889 104.061C52.8137 102.907 53.8815 101.862 54.8795 100.763C55.0295 100.599 55.1656 100.42 55.2982 100.259C54.3805 99.3068 53.5011 98.3932 52.6183 97.476C50.1199 94.3194 49.0452 90.7471 49.5686 86.7832C49.8407 84.7051 50.092 82.5617 51.2086 80.7241C52.0181 79.3913 53.051 78.1754 54.0734 76.987C56.031 74.7096 58.5992 73.4352 61.5094 72.738C62.4341 72.5181 63.3309 72.0132 64.2521 71.9788C67.6962 71.8518 71.0356 72.4013 73.4085 75.1252C75.2823 77.272 76.6117 79.7452 76.7444 82.7335C76.8421 84.9799 76.4582 87.058 75.551 89.1155C74.5356 91.4135 73.22 93.5122 71.4892 95.3155C70.5715 96.2669 69.3991 96.9883 68.3418 97.8161Z" fill="#1E1928"/>
<path d="M122.71 76.3174C120.798 72.5837 120.732 68.5992 121.126 64.5701C121.231 63.5019 121.398 62.4233 121.688 61.3929C122.414 58.7961 124.211 57.0958 126.546 55.7768C129.055 54.3616 131.594 53.2831 134.575 53.5751C135.621 53.678 136.69 53.5304 137.743 53.5716C140.343 53.6713 142.203 55.1105 143.585 57.0855C145.186 59.38 146.198 62.0008 146.39 64.7762C146.498 66.3219 146.003 67.9122 145.776 69.4786C145.612 69.7191 145.42 69.9492 145.29 70.2068C145.102 70.5846 144.963 70.9865 144.792 71.3746C143.983 73.2501 142.698 74.7992 141.382 76.3519C139.928 78.0727 138.064 79.2887 136.134 80.2779C134.787 80.9648 133.075 81.2431 131.535 81.2157C128.297 81.1606 125.673 79.6321 123.583 77.2105C123.314 76.8979 123.004 76.6128 122.71 76.3174Z" fill="#7E4239"/>
<path d="M122.71 76.318C123.003 76.6169 123.314 76.8985 123.586 77.2145C125.676 79.6362 128.3 81.1647 131.538 81.2196C133.077 81.2471 134.79 80.9689 136.137 80.2819C138.07 79.2961 139.931 78.0802 141.385 76.3558C142.698 74.7998 143.985 73.2541 144.795 71.3786C144.962 70.9905 145.102 70.5887 145.293 70.2108C145.423 69.9532 145.615 69.723 145.778 69.4826C145.353 71.6912 145.154 73.9411 144.086 76.0089C143.165 77.7882 141.958 79.2926 140.415 80.5601C139.822 81.0479 139.208 81.515 138.604 81.9925C138.165 81.8619 137.728 81.7245 137.285 81.6009C136.933 81.5048 136.514 81.1681 136.343 81.8448C136.326 81.9169 136.043 81.9513 135.883 81.9513C134.305 81.9513 132.728 81.9546 131.154 81.9238C129.545 81.8929 127.937 81.8139 126.328 81.7761C125.874 81.7658 125.418 81.8379 124.964 81.8757C124.427 80.9174 123.796 79.9968 123.377 78.9904C123.02 78.1488 122.92 77.2111 122.71 76.318Z" fill="#DFB995"/>
<path d="M15.7343 349.054C15.4028 348.882 15.0539 348.738 14.7468 348.528C13.5988 347.745 13.0021 346.846 12.8834 345.286C12.5694 341.171 12.4298 337.063 12.4926 332.941C12.5344 330.042 12.3355 327.125 13.037 324.265C13.0578 324.182 13.0545 324.096 13.0545 324.01C13.0021 317.292 13.194 310.555 12.8067 303.854C12.5344 299.086 12.4822 294.371 13.0265 289.637C13.0683 289.27 13.0545 288.899 13.0545 288.528C13.0788 277.564 13.0195 266.599 13.1626 255.636C13.2219 251.118 13.7488 246.612 14.007 242.095C14.1013 240.45 14.021 238.794 14.0175 237.145C14.0314 236.719 14.0454 236.293 14.0629 235.867C14.1954 231.948 14.3281 228.029 14.4607 224.11C14.7712 223.986 15.0817 223.862 15.3924 223.743C17.8559 224.017 20.316 224.316 22.783 224.566C27.6264 225.065 32.4767 225.491 37.3131 226.037C39.9162 226.332 42.4879 226.888 45.0876 227.198C48.1792 227.565 51.2848 227.782 54.3835 228.101C54.9 228.156 55.3955 228.407 55.9014 228.568C55.7374 234.425 55.6292 240.282 55.392 246.135C55.2558 249.483 54.9418 252.829 54.6627 256.171C54.4009 259.283 54.024 262.388 53.7972 265.504C53.4448 270.409 53.1866 275.317 52.8726 280.225C52.6527 283.688 52.4015 287.147 52.1746 290.606C52.1014 291.712 52.0979 292.824 52.0141 293.931C51.7594 297.362 51.4977 300.791 51.2046 304.218C50.8278 308.608 50.416 312.991 50.0251 317.381C49.9728 317.975 49.917 318.573 49.9205 319.17C49.9449 322.674 49.4563 326.136 49.1109 329.612C48.8248 332.495 48.7305 335.397 48.5631 338.289C48.4095 340.954 48.2909 343.623 48.113 346.286C48.0466 347.272 47.8652 348.254 47.7117 349.233C47.6279 349.776 46.4415 350.476 45.7332 350.483C45.0142 350.49 44.2954 350.552 43.5801 350.586C42.2647 350.696 40.9491 350.864 39.6301 350.902C38.6286 350.93 37.6236 350.782 36.6186 350.737C34.6611 350.648 32.6546 350.809 30.7564 350.438C27.4519 349.793 24.1509 349.497 20.7905 349.511C19.1051 349.531 17.4198 349.219 15.7343 349.054Z" fill="#0E8D64"/>
<path d="M26.6732 148.959C26.8686 149.811 27.064 150.662 27.2629 151.514C27.6991 153.389 28.1213 155.272 28.5854 157.141C28.8123 158.047 29.0809 158.948 29.402 159.823C30.065 161.634 30.8816 163.399 31.4364 165.24C31.8028 166.459 32.4483 167.452 33.202 168.424C33.3032 168.554 33.38 168.706 33.4672 168.85C31.0839 170.832 28.1353 171.811 25.4554 173.264C23.9654 174.071 22.4509 174.896 21.1563 175.957C20.2177 176.73 19.4815 177.836 18.9127 178.925C18.3996 179.907 17.5098 180.45 16.8155 180.155C16.0897 179.845 15.3045 179.224 14.9975 178.54C14.6381 177.74 14.7671 176.726 14.6939 175.806C14.652 175.298 14.6031 174.789 14.6031 174.281C14.5857 171.65 14.4776 169.015 14.6101 166.391C14.7252 164.096 14.3798 161.706 15.301 159.525C16.7492 156.093 18.1205 152.504 21.6868 150.601C23.2047 149.794 25.0017 149.491 26.6732 148.959Z" fill="#DFB995"/>
<path d="M14.4538 224.114C14.3212 228.033 14.1886 231.952 14.0561 235.871C14.0421 236.297 14.0281 236.723 14.0107 237.149C13.2081 237.21 12.5556 236.922 11.9973 236.359C11.0516 235.411 10.0431 234.521 9.14635 233.528C8.64037 232.969 8.27748 232.275 7.90759 231.608C7.49583 230.867 7.21667 230.052 6.77002 229.335C5.0218 226.521 3.87376 223.447 3.25263 220.257C2.86181 218.254 3.14445 216.124 3.12353 214.049C3.73417 214.829 4.34483 215.608 4.95549 216.388C5.0218 216.375 5.0846 216.361 5.1509 216.348C5.1195 215.922 5.08808 215.495 5.05668 215.073C5.10553 215.059 5.1544 215.049 5.20325 215.035C5.87672 216.43 6.43153 217.893 7.25853 219.195C8.05762 220.456 9.02771 221.647 10.1129 222.681C11.2191 223.736 12.7614 223.897 14.2619 223.972C14.3247 224.017 14.391 224.066 14.4538 224.114Z" fill="#E8B79C"/>
<path d="M14.4543 224.114C14.3881 224.066 14.3253 224.021 14.2625 223.973C14.1368 222.747 13.9519 221.52 13.8961 220.29C13.8019 218.209 13.8298 216.121 13.7251 214.04C13.6902 213.366 13.3308 212.713 13.261 212.037C13.1668 211.117 13.1843 210.182 13.1983 209.251C13.2296 207.503 13.2854 205.754 13.3483 204.006C13.3762 203.23 13.6274 202.415 13.4634 201.684C13.0343 199.781 13.439 197.896 13.3936 196.006C13.3518 194.306 13.3553 192.551 13.7355 190.908C14.2101 188.869 14.0496 186.859 14.0601 184.826C14.0671 183.658 14.1787 182.487 14.3008 181.326C14.3218 181.12 14.6323 180.941 14.8103 180.752C14.9604 180.931 15.229 181.102 15.243 181.291C15.3406 182.518 15.3825 183.747 15.4489 184.977C15.5221 186.375 15.5989 187.77 15.6756 189.163C15.6791 189.246 15.6931 189.336 15.6791 189.414C15.3895 191.084 15.072 192.75 14.8138 194.422C14.7545 194.8 14.922 195.205 14.9255 195.597C14.936 196.758 14.915 197.919 14.9045 199.08C14.8941 200.169 14.8836 201.258 14.8626 202.344C14.8312 203.985 14.765 205.628 14.7685 207.269C14.772 208.18 14.9115 209.09 14.9464 210C14.9917 211.136 14.9847 212.274 15.0092 213.411C15.0127 213.552 15.0406 213.702 15.0999 213.827C15.8013 215.241 15.5256 216.764 15.6268 218.247C15.6652 218.8 15.7664 219.353 15.7315 219.902C15.6513 221.184 15.5047 222.461 15.3825 223.74C15.079 223.867 14.7685 223.99 14.4543 224.114Z" fill="#1E1928"/>
<path d="M15.7338 349.054C17.4192 349.223 19.101 349.532 20.7865 349.525C24.1468 349.511 27.4479 349.807 30.7524 350.452C32.6506 350.823 34.657 350.658 36.6146 350.752C37.6196 350.796 38.6245 350.947 39.626 350.916C40.9451 350.878 42.2606 350.71 43.5761 350.6C44.7555 352.551 46.263 354.056 48.3148 355.271C50.4224 356.522 52.722 357.044 54.9238 357.906C57.4293 358.889 59.9801 359.761 62.5169 360.665C63.8219 361.128 65.0537 361.715 65.605 363.058C66.1354 364.357 66.0133 365.676 65.6399 367.036C65.1618 368.774 63.7766 369.131 62.3215 369.461C56.7209 370.732 51.1133 371.98 45.5128 373.253C41.6848 374.122 37.8674 375.054 34.0325 375.888C32.9995 376.114 31.9108 376.076 30.8535 376.204C29.1681 376.403 27.4688 376.547 25.8078 376.87C22.58 377.495 19.4744 377.324 16.5118 375.83C15.493 375.314 14.9381 374.572 14.9556 373.333C15.0323 367.726 14.9591 362.117 15.0777 356.512C15.1336 354.022 15.5069 351.538 15.7338 349.054Z" fill="#7E4239"/>
<path d="M197.96 388.361C197.639 388.283 197.312 388.217 196.997 388.118C195.469 387.626 193.93 387.176 192.43 386.613C191.55 386.283 191.076 385.586 191.194 384.59C191.456 382.34 191.694 380.083 191.976 377.836C192.053 377.242 192.272 376.665 192.426 376.081C192.956 376.185 193.483 376.336 194.021 376.381C195.06 376.469 196.108 376.49 197.151 376.559C197.664 376.594 198.173 376.731 198.682 376.727C202.444 376.703 206.206 376.85 209.96 376.408C211.579 376.216 212.683 375.429 212.808 373.901C212.976 374.024 213.128 374.234 213.31 374.261C214.919 374.492 216.545 374.636 218.143 374.917C219.657 375.182 221.026 375.786 221.947 377.098C222.641 378.771 222.473 379.52 220.952 380.622C219.71 381.525 218.398 382.34 217.09 383.154C216.098 383.769 215.097 384.394 214.032 384.875C212.766 385.445 211.444 385.902 210.121 386.342C207.985 387.049 205.829 387.695 203.683 388.368C201.775 388.361 199.865 388.361 197.96 388.361Z" fill="white"/>
<path d="M161.871 388.36C160.808 388.075 159.754 387.722 158.675 387.522C156.795 387.175 155.992 386.223 156.146 384.345C156.32 382.232 156.442 380.117 157.196 378.093C157.408 377.516 157.447 376.877 157.566 376.265C157.751 376.671 158.044 376.778 158.505 376.771C160.483 376.729 162.465 376.736 164.447 376.733C166.178 376.729 167.908 376.743 169.643 376.729C171.307 376.719 172.592 375.799 173.795 374.844C174.232 374.497 174.33 373.734 174.584 373.164C174.619 373.089 174.682 373.027 174.731 372.954C177.149 373.291 179.592 373.511 181.975 374.009C183.265 374.277 184.487 374.953 185.676 375.568C186.598 376.043 186.692 377.244 185.914 377.963C183.632 380.065 181.186 381.957 178.383 383.352C175.739 384.671 173.087 385.979 170.396 387.202C169.29 387.708 168.076 387.979 166.911 388.36C165.225 388.36 163.55 388.36 161.871 388.36Z" fill="white"/>
<path d="M153.525 284.297C153.472 284.297 153.423 284.297 153.371 284.297C153.371 282.075 153.371 279.856 153.371 277.634C153.423 277.634 153.472 277.634 153.525 277.634C153.525 279.852 153.525 282.075 153.525 284.297Z" fill="white"/>
<path d="M301.066 203.786C301.324 205.978 301.572 208.17 301.841 210.361C301.991 211.58 302.256 212.793 302.308 214.016C302.43 216.846 302.402 219.684 302.528 222.51C302.643 225.073 302.957 227.628 303.062 230.191C303.295 235.868 303.435 241.553 303.648 247.231C303.791 251.119 304.001 255.004 304.161 258.889C304.28 261.757 304.371 264.625 304.457 267.494C304.545 270.448 304.664 273.405 304.667 276.362C304.671 278.774 304.531 281.188 304.447 283.6C304.36 286.124 304.311 288.652 304.15 291.174C303.997 293.582 303.641 295.975 303.512 298.38C303.4 300.451 303.484 302.53 303.491 304.604C303.495 306.503 303.512 308.403 303.519 310.303C303.519 310.443 303.47 310.584 303.463 310.725C303.348 313.249 303.218 315.774 303.132 318.299C303.013 321.793 302.981 325.289 302.807 328.783C302.668 331.585 302.378 334.378 302.14 337.173C301.879 340.252 301.565 343.326 301.345 346.407C301.038 350.68 300.849 354.963 300.5 359.236C300.305 361.606 299.901 363.959 299.552 366.316C299.482 366.775 299.233 367.212 299.07 367.662C298.913 366.978 298.49 366.855 297.87 367.082C297.684 367.146 297.475 367.163 297.276 367.163C292.147 367.109 287.018 367.068 281.887 366.971C280.513 366.943 279.141 366.761 277.773 366.617C275.865 366.415 273.956 366.215 272.055 365.952C270.669 365.758 269.253 365.6 267.93 365.174C266.862 364.831 265.934 364.082 264.908 363.581C263.387 362.84 262.323 361.729 261.799 360.132C261.918 359.232 262.127 358.333 262.134 357.432C262.162 354.187 262.099 350.941 262.116 347.694C262.19 333.206 262.228 318.718 262.392 304.233C262.434 300.43 262.884 296.632 263.125 292.829C263.192 291.778 263.132 290.72 263.222 289.676C263.443 287.072 263.767 284.472 263.956 281.865C264.161 278.973 264.294 276.074 264.399 273.175C264.499 270.389 264.513 267.6 264.576 264.811C264.629 262.451 264.737 260.095 264.744 257.735C264.765 250.446 264.786 243.157 264.73 235.868C264.692 231.035 264.52 226.203 264.406 221.366C264.406 221.297 264.378 221.229 264.151 221.133C262.612 228.857 261.073 236.583 259.535 244.308C259.199 245.043 258.704 245.754 258.561 246.524C258.313 247.874 257.569 248.872 256.178 248.907C253.64 248.969 251.082 249.055 248.571 248.791C245.841 248.505 243.106 248.004 240.458 247.297C236.696 246.29 232.983 245.095 229.308 243.809C226.741 242.913 224.27 241.732 221.757 240.678C221.733 240.416 221.621 240.127 221.694 239.898C222.451 237.514 223.122 235.095 224.043 232.773C226.318 227.038 228.726 221.353 231.053 215.637C232.501 212.079 233.918 208.506 235.311 204.923C235.597 204.188 235.97 203.762 236.818 203.968C236.978 204.02 237.139 204.12 237.3 204.117C241.341 204.041 245.378 203.954 249.419 203.862C250.427 203.838 251.439 203.701 252.44 203.741C254.799 203.835 257.154 204.075 259.517 204.127C264.193 204.226 268.872 204.168 273.548 204.309C277.666 204.432 281.78 204.734 285.897 204.965C286.298 204.989 286.696 205.099 287.097 205.102C289.976 205.122 292.869 205.295 295.73 205.078C297.524 204.954 299.282 204.24 301.066 203.786Z" fill="#592141"/>
<path d="M159.426 324.294C158.034 324.118 156.641 323.926 155.246 323.774C154.51 323.696 154.164 323.39 154.223 322.62C154.468 319.378 154.635 316.129 154.931 312.889C155.222 309.713 155.616 306.542 155.986 303.371C156.126 302.193 156.328 301.022 156.502 299.847C156.669 299.05 156.855 298.261 157.001 297.46C157.859 292.874 158.616 288.265 159.59 283.703C160.375 280.021 161.422 276.39 162.343 272.736C163.561 267.9 164.712 263.043 166.004 258.223C167.211 253.73 168.492 249.258 170.265 244.93C171.001 243.137 171.416 241.214 171.963 239.344C172.543 237.374 173.782 235.759 174.94 234.113C175.952 232.675 177.087 231.318 178.168 229.923C179.372 228.398 180.949 227.392 182.722 226.595C184.767 225.671 186.756 224.63 188.776 223.651C188.996 223.545 189.254 223.517 189.495 223.455C191.11 225.815 193.285 227.48 196.017 228.377C198.892 229.322 201.823 229.013 204.737 228.511C204.552 230.452 204.374 232.393 204.172 234.333C204.119 234.835 203.899 235.34 203.934 235.832C204.046 237.438 204.237 239.043 204.405 240.647C204.514 241.687 204.677 242.728 204.74 243.773C204.841 245.431 204.908 247.098 204.929 248.76C204.953 250.57 204.789 252.387 204.943 254.184C205.033 255.245 205.585 256.197 206.883 256.519C208.387 256.894 209.866 257.392 211.321 257.928C212.385 258.319 213.412 258.642 214.581 258.529C215.749 258.412 216.175 258.106 216.559 257.001C216.887 256.046 217.334 255.131 217.728 254.201C217.815 254.547 217.917 254.891 217.993 255.242C218.614 258.051 219.232 260.865 219.85 263.677C220.157 265.67 220.407 267.673 220.788 269.651C221.797 274.924 222.857 280.189 223.905 285.455C224.676 289.329 225.573 293.184 226.207 297.079C226.877 301.19 227.331 305.339 227.83 309.479C228.308 313.449 228.734 317.43 229.163 321.408C229.274 322.445 229.313 323.49 229.393 324.651C228.855 324.651 228.406 324.671 227.956 324.647C227.076 324.599 226.2 324.469 225.321 324.479C222.519 324.507 219.72 324.582 216.922 324.644C216.754 324.647 216.587 324.706 216.419 324.739C216.081 324.702 215.742 324.654 215.401 324.633C214.081 324.554 212.762 324.479 211.447 324.413C209.441 324.314 207.435 324.145 205.427 324.152C203.421 324.159 201.414 324.42 199.408 324.441C196.965 324.465 194.519 324.355 192.077 324.3C191.25 324.29 190.423 324.266 189.6 324.283C189.264 324.29 188.929 324.393 188.594 324.451C188.158 324.337 187.725 324.142 187.286 324.129C184.445 324.043 181.605 323.956 178.764 323.953C176.346 323.949 173.924 324.067 171.506 324.112C167.476 324.18 163.449 324.235 159.426 324.294Z" fill="#BBB7E2"/>
<path d="M301.066 203.787C299.286 204.24 297.524 204.954 295.72 205.089C292.858 205.301 289.965 205.133 287.087 205.112C286.685 205.109 286.287 204.999 285.886 204.975C281.773 204.745 277.659 204.443 273.537 204.32C268.861 204.178 264.182 204.237 259.507 204.137C257.147 204.086 254.792 203.845 252.429 203.752C251.425 203.715 250.416 203.852 249.408 203.873C245.371 203.965 241.33 204.051 237.289 204.126C237.128 204.13 236.967 204.031 236.808 203.979C236.532 203.873 236.256 203.769 235.932 203.646C236.175 202.993 236.385 202.378 236.636 201.781C238.385 197.587 240.133 193.393 241.902 189.209C242.799 187.086 243.814 185.012 244.648 182.865C245.8 179.904 246.896 176.915 247.896 173.9C248.511 172.055 248.919 170.142 249.373 168.25C249.422 168.047 249.212 167.638 249.021 167.553C246.284 166.347 243.531 165.182 240.782 164.004C237.425 162.568 234.069 161.133 230.708 159.7C228.666 158.831 226.625 157.966 224.72 157.155C224.057 158.55 223.415 159.903 222.773 161.253C223.017 160.154 223.185 159.03 223.52 157.959C224.685 154.221 225.948 150.508 227.103 146.767C228.132 143.429 228.984 140.035 230.079 136.721C231.032 133.835 232.152 130.995 233.342 128.192C233.764 127.199 234.532 126.31 235.272 125.489C238.127 122.328 240.998 119.178 243.943 116.104C245.182 114.813 246.526 113.583 248.218 112.831C248.504 112.704 248.811 112.632 249.111 112.532C249.461 112.649 249.813 112.766 250.162 112.886C250.838 113.116 251.501 113.415 252.196 113.566C254.813 114.136 257.336 113.525 259.824 112.817C260.804 112.539 261.732 112.069 262.682 111.687C264.685 111.537 266.297 112.498 267.867 113.507C269.595 114.621 271.339 115.727 272.951 116.991C275.516 119.007 278.035 121.051 280.143 123.596C283.333 127.454 285.474 131.86 287.624 136.288C289.683 140.536 290.789 145.102 292.15 149.581C292.925 152.133 293.713 154.685 294.404 157.261C295.465 161.208 296.498 165.162 297.447 169.135C298.197 172.271 298.808 175.442 299.475 178.599C300.05 181.316 300.689 184.023 301.167 186.753C301.708 189.848 302.098 192.967 302.566 196.076C302.692 196.914 302.995 197.745 302.995 198.58C302.995 199.459 302.859 200.39 302.545 201.208C302.189 202.125 301.569 202.932 301.066 203.787Z" fill="#DFB995"/>
<path d="M216.412 324.735C216.58 324.701 216.747 324.643 216.915 324.639C219.714 324.577 222.516 324.502 225.314 324.474C226.19 324.464 227.07 324.594 227.949 324.643C228.399 324.667 228.849 324.646 229.386 324.646C229.306 323.485 229.267 322.441 229.156 321.404C228.727 317.426 228.305 313.448 227.823 309.474C227.324 305.335 226.87 301.189 226.201 297.074C225.566 293.179 224.669 289.324 223.898 285.45C222.85 280.184 221.79 274.919 220.781 269.647C220.404 267.668 220.153 265.665 219.843 263.673C221.138 264.22 222.4 264.865 223.733 265.291C225.841 265.961 228.002 266.473 230.133 267.077C233.968 268.162 237.869 268.798 241.861 268.939C245.714 269.073 249.52 268.668 253.324 268.173C253.708 268.121 253.858 268.176 253.852 268.55C253.464 270.643 253.087 272.738 252.685 274.83C251.886 279.013 251.104 283.204 250.261 287.38C249.573 290.774 248.826 294.158 248.069 297.537C247.151 301.635 246.189 305.726 245.25 309.821C244.321 313.891 243.341 317.951 242.5 322.039C241.99 324.512 241.729 327.03 241.31 329.524C240.958 331.626 240.546 333.717 240.145 335.81C239.332 340.045 238.543 344.287 237.678 348.511C237.245 350.624 236.644 352.702 236.166 354.808C235.511 357.686 234.9 360.575 234.268 363.456C234.195 363.79 234.104 364.12 234.021 364.449C233.305 364.617 232.59 364.924 231.871 364.931C227.457 364.975 223.043 364.962 218.629 364.941C217.826 364.937 217.027 364.824 216.228 364.755C215.356 364.683 214.483 364.607 213.663 364.539C213.568 365.037 213.495 365.421 213.426 365.802C213.437 365.15 213.423 364.494 213.468 363.845C213.673 360.702 213.91 357.559 214.106 354.416C214.257 352.036 214.302 349.648 214.5 347.272C214.905 342.462 215.38 337.657 215.83 332.849C216.046 330.534 216.284 328.219 216.486 325.899C216.521 325.515 216.44 325.123 216.412 324.735Z" fill="#592141"/>
<path d="M222.773 161.26C223.415 159.91 224.057 158.556 224.72 157.162C226.625 157.973 228.667 158.834 230.708 159.707C234.069 161.14 237.425 162.575 240.782 164.011C243.532 165.186 246.285 166.354 249.021 167.56C249.212 167.645 249.422 168.054 249.373 168.256C248.92 170.149 248.511 172.062 247.897 173.907C246.896 176.922 245.8 179.911 244.648 182.872C243.814 185.019 242.799 187.093 241.902 189.216C240.134 193.4 238.385 197.594 236.636 201.788C236.386 202.385 236.176 203 235.932 203.653C236.253 203.776 236.528 203.88 236.808 203.986C235.96 203.78 235.586 204.206 235.301 204.941C233.904 208.52 232.491 212.096 231.043 215.654C228.716 221.37 226.308 227.055 224.032 232.791C223.112 235.113 222.441 237.531 221.684 239.915C221.611 240.145 221.723 240.434 221.747 240.695C221.573 240.956 221.318 241.196 221.23 241.484C220.009 245.535 218.809 249.588 217.622 253.644C217.573 253.806 217.689 254.015 217.727 254.201C217.333 255.131 216.89 256.046 216.558 257C216.178 258.106 215.749 258.415 214.58 258.529C213.411 258.645 212.385 258.319 211.321 257.928C209.865 257.392 208.386 256.893 206.882 256.519C205.584 256.197 205.032 255.245 204.942 254.183C204.788 252.387 204.953 250.567 204.928 248.76C204.907 247.098 204.837 245.435 204.739 243.773C204.676 242.728 204.513 241.69 204.405 240.647C204.237 239.043 204.045 237.438 203.933 235.831C203.898 235.34 204.119 234.835 204.171 234.333C204.37 232.392 204.548 230.452 204.736 228.511C205.197 226.073 205.601 223.616 206.132 221.192C207.042 217.014 208.041 212.859 208.99 208.688C209.174 207.871 209.304 207.04 209.457 206.216C209.835 205.13 210.277 204.062 210.581 202.956C211.848 198.322 213.006 193.66 214.325 189.044C215.689 184.27 217.183 179.533 218.638 174.786C219.49 172.015 220.393 169.26 221.244 166.491C221.779 164.756 222.267 163.005 222.773 161.26Z" fill="#EED5CD"/>
<path d="M217.724 254.197C217.686 254.011 217.574 253.802 217.619 253.64C218.809 249.584 220.009 245.531 221.227 241.48C221.315 241.192 221.57 240.952 221.744 240.691C224.257 241.745 226.727 242.923 229.295 243.82C232.969 245.105 236.686 246.3 240.444 247.307C243.092 248.014 245.829 248.515 248.557 248.801C251.07 249.062 253.63 248.979 256.164 248.917C257.557 248.883 258.3 247.887 258.547 246.534C258.691 245.76 259.185 245.053 259.521 244.318C259.688 244.592 259.789 244.978 260.037 245.119C261.904 246.204 262.902 248.024 263.708 249.821C264.176 250.861 263.963 252.297 263.771 253.51C263.237 256.893 262.092 260.133 260.219 262.994C258.826 265.12 257.315 267.349 254.447 267.922C254.217 267.967 254.049 268.331 253.854 268.544C253.861 268.17 253.711 268.116 253.327 268.166C249.523 268.662 245.713 269.067 241.864 268.932C237.872 268.795 233.971 268.159 230.136 267.071C228.004 266.466 225.844 265.958 223.736 265.285C222.404 264.859 221.141 264.213 219.846 263.666C219.228 260.854 218.611 258.044 217.989 255.231C217.913 254.891 217.815 254.543 217.724 254.197Z" fill="#F9C4AA"/>
<path d="M262.686 111.694C261.733 112.076 260.808 112.545 259.828 112.824C257.34 113.531 254.817 114.143 252.2 113.573C251.505 113.422 250.843 113.123 250.166 112.893C249.817 112.772 249.465 112.656 249.115 112.539C248.966 112.313 248.85 112.048 248.659 111.862C246.579 109.825 245.417 107.332 245.347 104.481C245.284 102.028 245.385 99.5452 245.741 97.1232C246.097 94.7085 247.203 92.4861 248.487 90.3908C249.206 89.2126 249.516 87.77 250.773 86.9354C251.128 86.6984 251.447 86.3858 251.83 86.2106C254.154 85.1458 256.607 84.4897 259.171 84.5446C261.367 84.5927 263.552 84.9774 265.481 86.0973C267.216 87.1037 268.628 88.3986 269.308 90.4149C270.049 92.6063 270.415 94.8459 270.293 97.1094C270.094 100.799 269.371 104.429 267.1 107.476C266.081 108.843 264.591 109.867 263.321 111.048C263.094 111.254 262.895 111.478 262.686 111.694Z" fill="white"/>
<path d="M261.795 360.14C262.319 361.737 263.386 362.846 264.904 363.589C265.931 364.09 266.858 364.839 267.927 365.182C269.249 365.605 270.662 365.766 272.051 365.958C273.953 366.223 275.861 366.422 277.77 366.625C279.138 366.769 280.51 366.955 281.884 366.979C287.014 367.075 292.143 367.113 297.272 367.171C297.472 367.175 297.684 367.157 297.866 367.089C298.487 366.862 298.909 366.989 299.066 367.67C299.258 369.472 299.478 371.269 299.635 373.076C299.719 374.038 299.68 375.006 299.712 375.971C299.768 377.671 298.159 379.179 296.585 379.626C294.732 380.152 292.858 380.255 290.939 379.894C288.765 379.485 286.543 379.296 284.383 378.829C281.127 378.122 277.896 377.29 274.671 376.439C271.866 375.7 269.12 374.755 266.174 374.563C264.939 374.481 263.732 373.944 262.51 373.629C261.907 373.471 261.3 373.33 260.689 373.206C257.486 372.551 254.276 371.929 251.205 370.768C250.779 370.607 250.332 370.468 249.882 370.425C248.937 370.328 248.529 369.703 248.246 368.94C248.008 368.301 247.786 367.656 247.614 366.996C247.304 365.787 247.583 365.251 248.765 364.797C252.328 363.43 255.895 362.07 259.472 360.741C260.215 360.463 261.017 360.335 261.795 360.14Z" fill="#1E1928"/>
<path d="M209.453 206.216C209.3 207.041 209.174 207.871 208.986 208.689C208.037 212.859 207.042 217.015 206.128 221.192C205.597 223.617 205.193 226.07 204.732 228.511C201.814 229.013 198.888 229.322 196.012 228.378C193.284 227.481 191.106 225.815 189.49 223.455C188.437 221.34 187.592 219.158 187.069 216.843C186.587 214.72 186.503 212.598 186.992 210.506C187.368 208.895 187.906 207.287 188.621 205.793C189.009 204.986 189.85 204.324 190.617 203.766C193.304 201.822 196.253 200.5 199.687 200.823C202.261 201.067 204.735 201.65 206.64 203.605C207.534 204.522 208.515 205.35 209.453 206.216Z" fill="#7E4239"/>
<path d="M178.167 229.923C177.085 231.318 175.952 232.674 174.939 234.113C173.784 235.759 172.542 237.374 171.962 239.344C171.415 241.214 171 243.137 170.264 244.93C168.487 249.257 167.206 253.73 166.002 258.223C164.708 263.042 163.56 267.896 162.342 272.736C161.42 276.39 160.374 280.02 159.589 283.703C158.615 288.265 157.858 292.874 156.999 297.46C156.85 298.257 156.668 299.05 156.501 299.847C155.918 297.171 155.287 294.502 154.77 291.813C154.292 289.318 153.936 286.801 153.524 284.293C153.524 282.072 153.524 279.849 153.524 277.627C153.71 275.741 153.898 273.852 154.072 271.966C154.104 271.636 154.111 271.296 154.065 270.97C153.643 267.971 154.355 265.172 155.615 262.482C157.073 259.366 158.466 256.214 160.088 253.184C161.362 250.81 163.002 248.63 164.383 246.308C166.767 242.299 169.852 238.802 172.647 235.096C173.969 233.34 175.428 231.77 177.214 230.493C177.515 230.28 177.849 230.112 178.167 229.923Z" fill="#F9C4AA"/>
<path d="M213.429 365.804C213.502 365.422 213.572 365.041 213.666 364.54C214.49 364.608 215.359 364.684 216.231 364.757C217.03 364.821 217.833 364.939 218.632 364.942C223.046 364.959 227.46 364.973 231.874 364.932C232.593 364.925 233.308 364.618 234.024 364.45C234.17 365.429 234.345 366.405 234.453 367.391C234.683 369.524 234.983 371.66 235.06 373.8C235.123 375.607 234.131 376.631 232.202 376.83C228.772 377.184 225.359 376.967 221.944 377.101C221.022 375.789 219.654 375.185 218.14 374.92C216.541 374.639 214.915 374.498 213.307 374.264C213.125 374.237 212.972 374.027 212.804 373.904C213.014 371.2 213.219 368.5 213.429 365.804Z" fill="#1E1928"/>
<path d="M159.425 324.293C163.448 324.231 167.475 324.179 171.499 324.111C173.921 324.07 176.339 323.949 178.757 323.952C181.598 323.956 184.437 324.042 187.277 324.128C187.717 324.141 188.15 324.337 188.586 324.451C187.288 328.83 185.949 333.196 184.699 337.589C183.506 341.79 182.438 346.029 181.262 350.233C180.261 353.812 179.179 357.371 178.135 360.939C176.998 364.831 175.868 368.726 174.741 372.621C174.709 372.728 174.727 372.848 174.723 372.961C174.674 373.03 174.611 373.096 174.576 373.171C174.322 373.741 174.224 374.504 173.788 374.851C172.587 375.806 171.3 376.723 169.635 376.737C167.904 376.75 166.174 376.737 164.439 376.74C162.458 376.744 160.479 376.737 158.497 376.778C158.036 376.788 157.74 376.678 157.558 376.273C157.604 375.115 157.681 373.954 157.688 372.797C157.691 372.062 157.551 371.33 157.548 370.595C157.53 367.607 157.523 364.618 157.548 361.63C157.562 360.043 157.702 358.456 157.698 356.866C157.695 355.049 157.488 353.228 157.565 351.418C157.705 348.079 157.987 344.748 158.21 341.413C158.336 339.516 158.455 337.623 158.58 335.728C158.815 332.138 159.041 328.549 159.282 324.959C159.293 324.732 159.373 324.516 159.425 324.293Z" fill="#F9C4AA"/>
<path d="M213.429 365.804C213.223 368.503 213.014 371.201 212.807 373.9C212.679 375.432 211.579 376.219 209.96 376.411C206.206 376.855 202.444 376.706 198.682 376.73C198.173 376.734 197.664 376.597 197.15 376.562C196.107 376.493 195.06 376.472 194.021 376.384C193.483 376.339 192.956 376.188 192.426 376.084C192.363 374.834 192.3 373.584 192.237 372.337C192.234 368.868 192.227 365.402 192.223 361.933C192.23 358.948 192.255 355.963 192.237 352.981C192.192 344.886 192.125 336.792 192.074 328.697C192.063 327.234 192.074 325.767 192.074 324.304C194.52 324.355 196.962 324.469 199.404 324.445C201.411 324.424 203.418 324.162 205.424 324.155C207.431 324.149 209.437 324.318 211.444 324.417C212.762 324.482 214.081 324.557 215.397 324.637C215.739 324.658 216.077 324.709 216.415 324.743C216.443 325.131 216.524 325.523 216.492 325.907C216.287 328.227 216.053 330.542 215.837 332.857C215.386 337.662 214.912 342.467 214.507 347.28C214.308 349.656 214.263 352.044 214.113 354.424C213.918 357.567 213.68 360.71 213.474 363.853C213.425 364.495 213.439 365.148 213.429 365.804Z" fill="#F9C4AA"/>
<path d="M192.22 361.929C192.223 365.398 192.23 368.864 192.233 372.333C190.527 371.873 188.821 371.419 187.118 370.956C186.626 370.821 186.13 370.688 185.653 370.516C185.261 370.375 184.749 370.275 184.539 369.984C183.817 368.977 183.13 367.878 183.433 366.576C183.531 366.16 184.085 365.851 184.432 365.494C185.663 364.226 187.202 363.585 188.915 363.179C189.969 362.928 190.946 362.368 191.958 361.953C192.039 361.922 192.132 361.935 192.22 361.929Z" fill="#1E1928"/>
<path d="M367.874 65.7132C367.866 65.592 367.857 65.4665 367.849 65.3412C369.127 65.3412 370.406 65.337 371.684 65.337C371.675 65.4623 371.671 65.5878 371.663 65.7132C370.401 65.7132 369.14 65.7132 367.874 65.7132Z" fill="white"/>
<path d="M371.689 65.3375C370.41 65.3375 369.132 65.3417 367.854 65.3417C360.151 64.865 353.136 62.4064 346.753 58.1371C348.397 57.7733 350.107 57.4179 351.81 57.0123C352.478 56.8534 353.102 56.5022 353.772 56.3976C355 56.2053 356.257 56.2052 357.475 55.9837C361.48 55.2645 365.535 54.7083 369.251 52.8977C371.693 51.7102 374.229 50.6649 376.526 49.2474C378.033 48.315 379.371 46.9727 380.466 45.5719C382.688 42.737 384.722 39.764 386.773 36.8077C388.454 34.3824 389.627 31.7649 389.605 28.7376C389.597 27.2908 389.766 25.844 389.753 24.3973C389.728 21.1316 389.486 17.8617 389.631 14.6044C389.745 11.9366 390.412 9.29399 390.603 6.62625C390.726 4.89932 390.425 3.14313 390.31 1.40366C390.289 1.08587 390.246 0.768084 390.353 0.375031C391.953 2.12286 394.106 3.09295 395.584 5.06658C397.104 7.09875 398.404 9.24799 399.758 11.3596C401.011 13.3082 401.771 15.5159 401.996 17.8617C402.043 18.3677 402.255 18.8569 402.349 19.3629C402.663 21.0856 403.036 22.8 403.228 24.5353C403.406 26.1409 403.423 27.7716 403.444 29.3899C403.504 34.1525 402.536 38.7019 400.451 43.0088C399.67 44.627 399.028 46.333 398.069 47.8466C395.971 51.1625 393.567 54.2317 390.127 56.3768C388.955 57.1085 388.009 58.1747 386.861 58.9483C384.696 60.4076 382.505 61.8419 380.237 63.1297C379.108 63.7694 377.774 64.058 376.534 64.5054C376.372 64.6099 376.212 64.7187 376.046 64.8274C375.706 64.911 375.371 64.9905 375.031 65.074C374.891 65.0782 374.75 65.0824 374.611 65.0908C374.338 65.1075 374.067 65.1201 373.795 65.1368C373.506 65.1953 373.217 65.2538 372.929 65.3124C372.517 65.325 372.105 65.3333 371.689 65.3375Z" fill="white"/>
<path d="M372.932 65.3212C373.221 65.2623 373.509 65.2035 373.799 65.1446C373.509 65.2035 373.221 65.2623 372.932 65.3212Z" fill="white"/>
<path d="M376.049 64.8356C376.211 64.7268 376.372 64.6223 376.538 64.5135C376.376 64.6223 376.211 64.731 376.049 64.8356Z" fill="white"/>
<path d="M374.614 65.0993C374.753 65.0951 374.894 65.0909 375.034 65.0824C374.898 65.0866 374.753 65.0909 374.614 65.0993Z" fill="white"/>
</g>
</g>
<defs>
<clipPath id="clip0_1_225">
<rect width="404" height="389" fill="white"/>
</clipPath>
<clipPath id="clip1_1_225">
<rect width="404" height="389" fill="white"/>
</clipPath>
</defs>
</svg>
