<svg width="29" height="23" viewBox="0 0 29 23" fill="none" xmlns="http://www.w3.org/2000/svg">
<path d="M0.453125 22.7031V17.0312C0.453125 15.125 0.765625 13.1406 1.39062 11.0781C2.04688 8.98437 2.98438 6.98438 4.20312 5.07812C5.42188 3.14063 6.89062 1.46875 8.60938 0.0625L13.5312 3.48438C12.0938 5.54688 10.9844 7.67187 10.2031 9.85938C9.42188 12.0156 9.03125 14.3594 9.03125 16.8906V22.7031H0.453125ZM15.2188 22.7031V17.0312C15.2188 15.125 15.5312 13.1406 16.1562 11.0781C16.8125 8.98437 17.75 6.98438 18.9688 5.07812C20.1875 3.14063 21.6562 1.46875 23.375 0.0625L28.2969 3.48438C26.8594 5.54688 25.75 7.67187 24.9688 9.85938C24.1875 12.0156 23.7969 14.3594 23.7969 16.8906V22.7031H15.2188Z" fill="#F4EFE9"/>
</svg>
